<svg viewBox="0 0 1600 1000" xmlns="http://www.w3.org/2000/svg" role="img" aria-labelledby="ctaTitle">
  <title id="ctaTitle">Каркасний будинок РАМА у вечірньому світлі з підсвіченими вікнами</title>
  <rect x="0" y="0" width="1600" height="1000" fill="#22201C"/>
  <line x1="0" y1="720" x2="1600" y2="720" stroke="#F3EFE7" stroke-width="1" opacity="0.15"/>
  <g stroke="#F3EFE7" stroke-width="2" fill="none" opacity="0.85">
    <polyline points="380,720 380,440 800,260 1220,440 1220,720"/>
    <line x1="800" y1="260" x2="800" y2="150"/>
  </g>
  <polyline points="350,455 800,235 1250,455" stroke="#B08655" stroke-width="2" fill="none" opacity="0.9"/>
  <g>
    <rect x="450" y="480" width="90" height="120" fill="#B08655" opacity="0.85"/>
    <rect x="560" y="480" width="90" height="120" fill="#DDD6C4" opacity="0.55"/>
    <rect x="670" y="480" width="90" height="120" fill="#B08655" opacity="0.85"/>
    <rect x="900" y="480" width="90" height="120" fill="#DDD6C4" opacity="0.4"/>
    <rect x="1010" y="480" width="90" height="120" fill="#B08655" opacity="0.7"/>
    <rect x="1120" y="480" width="90" height="120" fill="#DDD6C4" opacity="0.55"/>
  </g>
  <rect x="770" y="580" width="60" height="140" fill="#F3EFE7" opacity="0.9"/>
  <g stroke="#F3EFE7" stroke-width="1" opacity="0.2">
    <line x1="380" y1="720" x2="380" y2="760"/>
    <line x1="1220" y1="720" x2="1220" y2="760"/>
    <line x1="380" y1="760" x2="1220" y2="760"/>
  </g>
</svg>
